<svg width="237" height="43" viewBox="0 0 237 43" fill="none" xmlns="http://www.w3.org/2000/svg">
<rect width="237" height="43" rx="10" fill="#FBBC04"/>
<path d="M29.1706 29.72C28.109 30.7492 26.9498 30.5867 25.834 30.0992C24.6531 29.6008 23.5698 29.5792 22.324 30.0992C20.764 30.7708 19.9406 30.5758 19.009 29.72C13.7223 24.2708 14.5023 15.9725 20.504 15.6692C21.9665 15.745 22.9848 16.4708 23.8406 16.5358C25.119 16.2758 26.3431 15.5283 27.7081 15.6258C29.344 15.7558 30.579 16.4058 31.3915 17.5758C28.0115 19.6017 28.8131 24.0542 31.9115 25.3C31.294 26.925 30.4923 28.5392 29.1598 29.7308L29.1706 29.72ZM23.7323 15.6042C23.5698 13.1883 25.5306 11.195 27.784 11C28.0981 13.795 25.249 15.875 23.7323 15.6042Z" fill="#FFFDFD"/>
<path d="M49.135 25.44C49.245 25.45 49.39 25.46 49.57 25.47C49.75 25.47 49.995 25.47 50.305 25.47C51.575 25.47 52.52 25.15 53.14 24.51C53.77 23.86 54.085 22.955 54.085 21.795C54.085 20.615 53.78 19.71 53.17 19.08C52.56 18.45 51.615 18.135 50.335 18.135C49.775 18.135 49.375 18.15 49.135 18.18V25.44ZM56.065 21.795C56.065 22.695 55.925 23.48 55.645 24.15C55.365 24.81 54.965 25.365 54.445 25.815C53.935 26.255 53.315 26.585 52.585 26.805C51.865 27.015 51.065 27.12 50.185 27.12C49.765 27.12 49.29 27.1 48.76 27.06C48.23 27.03 47.725 26.96 47.245 26.85V16.755C47.725 16.645 48.235 16.575 48.775 16.545C49.315 16.515 49.795 16.5 50.215 16.5C51.085 16.5 51.88 16.605 52.6 16.815C53.32 17.015 53.935 17.335 54.445 17.775C54.965 18.205 55.365 18.755 55.645 19.425C55.925 20.085 56.065 20.875 56.065 21.795ZM65.1338 23.07C65.1338 23.69 65.0438 24.255 64.8638 24.765C64.6838 25.275 64.4288 25.71 64.0988 26.07C63.7688 26.43 63.3688 26.71 62.8988 26.91C62.4388 27.11 61.9288 27.21 61.3688 27.21C60.8088 27.21 60.2988 27.11 59.8388 26.91C59.3788 26.71 58.9838 26.43 58.6538 26.07C58.3238 25.71 58.0638 25.275 57.8738 24.765C57.6938 24.255 57.6038 23.69 57.6038 23.07C57.6038 22.45 57.6938 21.89 57.8738 21.39C58.0638 20.88 58.3238 20.445 58.6538 20.085C58.9938 19.725 59.3938 19.45 59.8538 19.26C60.3138 19.06 60.8188 18.96 61.3688 18.96C61.9188 18.96 62.4238 19.06 62.8838 19.26C63.3538 19.45 63.7538 19.725 64.0838 20.085C64.4138 20.445 64.6688 20.88 64.8488 21.39C65.0388 21.89 65.1338 22.45 65.1338 23.07ZM63.2738 23.07C63.2738 22.29 63.1038 21.675 62.7638 21.225C62.4338 20.765 61.9688 20.535 61.3688 20.535C60.7688 20.535 60.2988 20.765 59.9588 21.225C59.6288 21.675 59.4638 22.29 59.4638 23.07C59.4638 23.86 59.6288 24.485 59.9588 24.945C60.2988 25.405 60.7688 25.635 61.3688 25.635C61.9688 25.635 62.4338 25.405 62.7638 24.945C63.1038 24.485 63.2738 23.86 63.2738 23.07ZM71.5225 22.065C71.2925 22.945 71.0425 23.805 70.7725 24.645C70.5125 25.475 70.2525 26.26 69.9925 27H68.5075C68.3075 26.54 68.0975 26.015 67.8775 25.425C67.6575 24.835 67.4375 24.205 67.2175 23.535C66.9975 22.865 66.7775 22.16 66.5575 21.42C66.3375 20.68 66.1225 19.925 65.9125 19.155H67.8325C67.9225 19.575 68.0275 20.03 68.1475 20.52C68.2675 21 68.3925 21.495 68.5225 22.005C68.6525 22.505 68.7875 22.995 68.9275 23.475C69.0675 23.955 69.2075 24.395 69.3475 24.795C69.4975 24.335 69.6425 23.86 69.7825 23.37C69.9325 22.88 70.0725 22.39 70.2025 21.9C70.3325 21.41 70.4525 20.935 70.5625 20.475C70.6825 20.005 70.7875 19.565 70.8775 19.155H72.2725C72.3625 19.565 72.4625 20.005 72.5725 20.475C72.6825 20.935 72.7975 21.41 72.9175 21.9C73.0475 22.39 73.1825 22.88 73.3225 23.37C73.4725 23.86 73.6225 24.335 73.7725 24.795C73.9025 24.395 74.0375 23.955 74.1775 23.475C74.3175 22.995 74.4525 22.505 74.5825 22.005C74.7225 21.495 74.8525 21 74.9725 20.52C75.0925 20.03 75.1975 19.575 75.2875 19.155H77.1625C76.9525 19.925 76.7375 20.68 76.5175 21.42C76.2975 22.16 76.0775 22.865 75.8575 23.535C75.6375 24.205 75.4175 24.835 75.1975 25.425C74.9775 26.015 74.7625 26.54 74.5525 27H73.0825C72.8225 26.26 72.5525 25.475 72.2725 24.645C72.0025 23.805 71.7525 22.945 71.5225 22.065ZM78.5466 19.41C78.8966 19.31 79.3516 19.215 79.9116 19.125C80.4716 19.035 81.0916 18.99 81.7716 18.99C82.4116 18.99 82.9466 19.08 83.3766 19.26C83.8066 19.43 84.1466 19.675 84.3966 19.995C84.6566 20.305 84.8366 20.685 84.9366 21.135C85.0466 21.575 85.1016 22.06 85.1016 22.59V27H83.2866V22.875C83.2866 22.455 83.2566 22.1 83.1966 21.81C83.1466 21.51 83.0566 21.27 82.9266 21.09C82.8066 20.9 82.6366 20.765 82.4166 20.685C82.2066 20.595 81.9466 20.55 81.6366 20.55C81.4066 20.55 81.1666 20.565 80.9166 20.595C80.6666 20.625 80.4816 20.65 80.3616 20.67V27H78.5466V19.41ZM90.051 27.15C89.511 27.14 89.061 27.08 88.701 26.97C88.351 26.86 88.071 26.705 87.861 26.505C87.651 26.295 87.501 26.04 87.411 25.74C87.331 25.43 87.291 25.08 87.291 24.69V15.66L89.106 15.36V24.345C89.106 24.565 89.121 24.75 89.151 24.9C89.191 25.05 89.256 25.18 89.346 25.29C89.436 25.39 89.556 25.47 89.706 25.53C89.866 25.58 90.066 25.62 90.306 25.65L90.051 27.15ZM98.8691 23.07C98.8691 23.69 98.7791 24.255 98.5991 24.765C98.4191 25.275 98.1641 25.71 97.8341 26.07C97.5041 26.43 97.1041 26.71 96.6341 26.91C96.1741 27.11 95.6641 27.21 95.1041 27.21C94.5441 27.21 94.0341 27.11 93.5741 26.91C93.1141 26.71 92.7191 26.43 92.3891 26.07C92.0591 25.71 91.7991 25.275 91.6091 24.765C91.4291 24.255 91.3391 23.69 91.3391 23.07C91.3391 22.45 91.4291 21.89 91.6091 21.39C91.7991 20.88 92.0591 20.445 92.3891 20.085C92.7291 19.725 93.1291 19.45 93.5891 19.26C94.0491 19.06 94.5541 18.96 95.1041 18.96C95.6541 18.96 96.1591 19.06 96.6191 19.26C97.0891 19.45 97.4891 19.725 97.8191 20.085C98.1491 20.445 98.4041 20.88 98.5841 21.39C98.7741 21.89 98.8691 22.45 98.8691 23.07ZM97.0091 23.07C97.0091 22.29 96.8391 21.675 96.4991 21.225C96.1691 20.765 95.7041 20.535 95.1041 20.535C94.5041 20.535 94.0341 20.765 93.6941 21.225C93.3641 21.675 93.1991 22.29 93.1991 23.07C93.1991 23.86 93.3641 24.485 93.6941 24.945C94.0341 25.405 94.5041 25.635 95.1041 25.635C95.7041 25.635 96.1691 25.405 96.4991 24.945C96.8391 24.485 97.0091 23.86 97.0091 23.07ZM103.499 25.725C104.059 25.725 104.484 25.695 104.774 25.635V23.625C104.674 23.595 104.529 23.565 104.339 23.535C104.149 23.505 103.939 23.49 103.709 23.49C103.509 23.49 103.304 23.505 103.094 23.535C102.894 23.565 102.709 23.62 102.539 23.7C102.379 23.78 102.249 23.895 102.149 24.045C102.049 24.185 101.999 24.365 101.999 24.585C101.999 25.015 102.134 25.315 102.404 25.485C102.674 25.645 103.039 25.725 103.499 25.725ZM103.349 18.96C103.949 18.96 104.454 19.035 104.864 19.185C105.274 19.335 105.599 19.545 105.839 19.815C106.089 20.085 106.264 20.415 106.364 20.805C106.474 21.185 106.529 21.605 106.529 22.065V26.82C106.249 26.88 105.824 26.95 105.254 27.03C104.694 27.12 104.059 27.165 103.349 27.165C102.879 27.165 102.449 27.12 102.059 27.03C101.669 26.94 101.334 26.795 101.054 26.595C100.784 26.395 100.569 26.135 100.409 25.815C100.259 25.495 100.184 25.1 100.184 24.63C100.184 24.18 100.269 23.8 100.439 23.49C100.619 23.18 100.859 22.93 101.159 22.74C101.459 22.54 101.804 22.4 102.194 22.32C102.594 22.23 103.009 22.185 103.439 22.185C103.639 22.185 103.849 22.2 104.069 22.23C104.289 22.25 104.524 22.29 104.774 22.35V22.05C104.774 21.84 104.749 21.64 104.699 21.45C104.649 21.26 104.559 21.095 104.429 20.955C104.309 20.805 104.144 20.69 103.934 20.61C103.734 20.53 103.479 20.49 103.169 20.49C102.749 20.49 102.364 20.52 102.014 20.58C101.664 20.64 101.379 20.71 101.159 20.79L100.934 19.32C101.164 19.24 101.499 19.16 101.939 19.08C102.379 19 102.849 18.96 103.349 18.96ZM110.177 23.055C110.177 23.855 110.367 24.485 110.747 24.945C111.127 25.395 111.652 25.62 112.322 25.62C112.612 25.62 112.857 25.61 113.057 25.59C113.267 25.56 113.437 25.53 113.567 25.5V21C113.407 20.89 113.192 20.79 112.922 20.7C112.662 20.6 112.382 20.55 112.082 20.55C111.422 20.55 110.937 20.775 110.627 21.225C110.327 21.675 110.177 22.285 110.177 23.055ZM115.382 26.76C115.022 26.87 114.567 26.97 114.017 27.06C113.477 27.15 112.907 27.195 112.307 27.195C111.687 27.195 111.132 27.1 110.642 26.91C110.152 26.72 109.732 26.45 109.382 26.1C109.042 25.74 108.777 25.31 108.587 24.81C108.407 24.3 108.317 23.73 108.317 23.1C108.317 22.48 108.392 21.92 108.542 21.42C108.702 20.91 108.932 20.475 109.232 20.115C109.532 19.755 109.897 19.48 110.327 19.29C110.757 19.09 111.252 18.99 111.812 18.99C112.192 18.99 112.527 19.035 112.817 19.125C113.107 19.215 113.357 19.315 113.567 19.425V15.66L115.382 15.36V26.76ZM128.283 23.07C128.283 23.69 128.193 24.255 128.013 24.765C127.833 25.275 127.578 25.71 127.248 26.07C126.918 26.43 126.518 26.71 126.048 26.91C125.588 27.11 125.078 27.21 124.518 27.21C123.958 27.21 123.448 27.11 122.988 26.91C122.528 26.71 122.133 26.43 121.803 26.07C121.473 25.71 121.213 25.275 121.023 24.765C120.843 24.255 120.753 23.69 120.753 23.07C120.753 22.45 120.843 21.89 121.023 21.39C121.213 20.88 121.473 20.445 121.803 20.085C122.143 19.725 122.543 19.45 123.003 19.26C123.463 19.06 123.968 18.96 124.518 18.96C125.068 18.96 125.573 19.06 126.033 19.26C126.503 19.45 126.903 19.725 127.233 20.085C127.563 20.445 127.818 20.88 127.998 21.39C128.188 21.89 128.283 22.45 128.283 23.07ZM126.423 23.07C126.423 22.29 126.253 21.675 125.913 21.225C125.583 20.765 125.118 20.535 124.518 20.535C123.918 20.535 123.448 20.765 123.108 21.225C122.778 21.675 122.613 22.29 122.613 23.07C122.613 23.86 122.778 24.485 123.108 24.945C123.448 25.405 123.918 25.635 124.518 25.635C125.118 25.635 125.583 25.405 125.913 24.945C126.253 24.485 126.423 23.86 126.423 23.07ZM130.153 19.41C130.503 19.31 130.958 19.215 131.518 19.125C132.078 19.035 132.698 18.99 133.378 18.99C134.018 18.99 134.553 19.08 134.983 19.26C135.413 19.43 135.753 19.675 136.003 19.995C136.263 20.305 136.443 20.685 136.543 21.135C136.653 21.575 136.708 22.06 136.708 22.59V27H134.893V22.875C134.893 22.455 134.863 22.1 134.803 21.81C134.753 21.51 134.663 21.27 134.533 21.09C134.413 20.9 134.243 20.765 134.023 20.685C133.813 20.595 133.553 20.55 133.243 20.55C133.013 20.55 132.773 20.565 132.523 20.595C132.273 20.625 132.088 20.65 131.968 20.67V27H130.153V19.41ZM145.188 25.725C145.748 25.725 146.173 25.695 146.463 25.635V23.625C146.363 23.595 146.218 23.565 146.028 23.535C145.838 23.505 145.628 23.49 145.398 23.49C145.198 23.49 144.993 23.505 144.783 23.535C144.583 23.565 144.398 23.62 144.228 23.7C144.068 23.78 143.938 23.895 143.838 24.045C143.738 24.185 143.688 24.365 143.688 24.585C143.688 25.015 143.823 25.315 144.093 25.485C144.363 25.645 144.728 25.725 145.188 25.725ZM145.038 18.96C145.638 18.96 146.143 19.035 146.553 19.185C146.963 19.335 147.288 19.545 147.528 19.815C147.778 20.085 147.953 20.415 148.053 20.805C148.163 21.185 148.218 21.605 148.218 22.065V26.82C147.938 26.88 147.513 26.95 146.943 27.03C146.383 27.12 145.748 27.165 145.038 27.165C144.568 27.165 144.138 27.12 143.748 27.03C143.358 26.94 143.023 26.795 142.743 26.595C142.473 26.395 142.258 26.135 142.098 25.815C141.948 25.495 141.873 25.1 141.873 24.63C141.873 24.18 141.958 23.8 142.128 23.49C142.308 23.18 142.548 22.93 142.848 22.74C143.148 22.54 143.493 22.4 143.883 22.32C144.283 22.23 144.698 22.185 145.128 22.185C145.328 22.185 145.538 22.2 145.758 22.23C145.978 22.25 146.213 22.29 146.463 22.35V22.05C146.463 21.84 146.438 21.64 146.388 21.45C146.338 21.26 146.248 21.095 146.118 20.955C145.998 20.805 145.833 20.69 145.623 20.61C145.423 20.53 145.168 20.49 144.858 20.49C144.438 20.49 144.053 20.52 143.703 20.58C143.353 20.64 143.068 20.71 142.848 20.79L142.623 19.32C142.853 19.24 143.188 19.16 143.628 19.08C144.068 19 144.538 18.96 145.038 18.96ZM155.646 23.115C155.646 22.305 155.461 21.675 155.091 21.225C154.731 20.775 154.146 20.55 153.336 20.55C153.166 20.55 152.986 20.56 152.796 20.58C152.616 20.59 152.436 20.62 152.256 20.67V25.155C152.416 25.265 152.626 25.37 152.886 25.47C153.156 25.56 153.441 25.605 153.741 25.605C154.401 25.605 154.881 25.38 155.181 24.93C155.491 24.48 155.646 23.875 155.646 23.115ZM157.506 23.085C157.506 23.685 157.426 24.235 157.266 24.735C157.116 25.235 156.896 25.665 156.606 26.025C156.316 26.385 155.951 26.665 155.511 26.865C155.081 27.065 154.591 27.165 154.041 27.165C153.671 27.165 153.331 27.12 153.021 27.03C152.711 26.94 152.456 26.84 152.256 26.73V29.775H150.441V19.41C150.811 19.31 151.266 19.215 151.806 19.125C152.346 19.035 152.916 18.99 153.516 18.99C154.136 18.99 154.691 19.085 155.181 19.275C155.671 19.465 156.086 19.74 156.426 20.1C156.776 20.45 157.041 20.88 157.221 21.39C157.411 21.89 157.506 22.455 157.506 23.085ZM164.582 23.115C164.582 22.305 164.397 21.675 164.027 21.225C163.667 20.775 163.082 20.55 162.272 20.55C162.102 20.55 161.922 20.56 161.732 20.58C161.552 20.59 161.372 20.62 161.192 20.67V25.155C161.352 25.265 161.562 25.37 161.822 25.47C162.092 25.56 162.377 25.605 162.677 25.605C163.337 25.605 163.817 25.38 164.117 24.93C164.427 24.48 164.582 23.875 164.582 23.115ZM166.442 23.085C166.442 23.685 166.362 24.235 166.202 24.735C166.052 25.235 165.832 25.665 165.542 26.025C165.252 26.385 164.887 26.665 164.447 26.865C164.017 27.065 163.527 27.165 162.977 27.165C162.607 27.165 162.267 27.12 161.957 27.03C161.647 26.94 161.392 26.84 161.192 26.73V29.775H159.377V19.41C159.747 19.31 160.202 19.215 160.742 19.125C161.282 19.035 161.852 18.99 162.452 18.99C163.072 18.99 163.627 19.085 164.117 19.275C164.607 19.465 165.022 19.74 165.362 20.1C165.712 20.45 165.977 20.88 166.157 21.39C166.347 21.89 166.442 22.455 166.442 23.085ZM171.042 27.15C170.502 27.14 170.052 27.08 169.692 26.97C169.342 26.86 169.062 26.705 168.852 26.505C168.642 26.295 168.492 26.04 168.402 25.74C168.322 25.43 168.282 25.08 168.282 24.69V15.66L170.097 15.36V24.345C170.097 24.565 170.112 24.75 170.142 24.9C170.182 25.05 170.247 25.18 170.337 25.29C170.427 25.39 170.547 25.47 170.697 25.53C170.857 25.58 171.057 25.62 171.297 25.65L171.042 27.15ZM172.33 23.115C172.33 22.425 172.43 21.82 172.63 21.3C172.84 20.78 173.115 20.35 173.455 20.01C173.795 19.66 174.185 19.4 174.625 19.23C175.065 19.05 175.515 18.96 175.975 18.96C177.055 18.96 177.895 19.295 178.495 19.965C179.105 20.635 179.41 21.635 179.41 22.965C179.41 23.065 179.405 23.18 179.395 23.31C179.395 23.43 179.39 23.54 179.38 23.64H174.205C174.255 24.27 174.475 24.76 174.865 25.11C175.265 25.45 175.84 25.62 176.59 25.62C177.03 25.62 177.43 25.58 177.79 25.5C178.16 25.42 178.45 25.335 178.66 25.245L178.9 26.73C178.8 26.78 178.66 26.835 178.48 26.895C178.31 26.945 178.11 26.99 177.88 27.03C177.66 27.08 177.42 27.12 177.16 27.15C176.9 27.18 176.635 27.195 176.365 27.195C175.675 27.195 175.075 27.095 174.565 26.895C174.055 26.685 173.635 26.4 173.305 26.04C172.975 25.67 172.73 25.24 172.57 24.75C172.41 24.25 172.33 23.705 172.33 23.115ZM177.595 22.305C177.595 22.055 177.56 21.82 177.49 21.6C177.42 21.37 177.315 21.175 177.175 21.015C177.045 20.845 176.88 20.715 176.68 20.625C176.49 20.525 176.26 20.475 175.99 20.475C175.71 20.475 175.465 20.53 175.255 20.64C175.045 20.74 174.865 20.875 174.715 21.045C174.575 21.215 174.465 21.41 174.385 21.63C174.305 21.85 174.25 22.075 174.22 22.305H177.595ZM186.801 25.695C187.281 25.695 187.631 25.64 187.851 25.53C188.071 25.41 188.181 25.21 188.181 24.93C188.181 24.67 188.061 24.455 187.821 24.285C187.591 24.115 187.206 23.93 186.666 23.73C186.336 23.61 186.031 23.485 185.751 23.355C185.481 23.215 185.246 23.055 185.046 22.875C184.846 22.695 184.686 22.48 184.566 22.23C184.456 21.97 184.401 21.655 184.401 21.285C184.401 20.565 184.666 20 185.196 19.59C185.726 19.17 186.446 18.96 187.356 18.96C187.816 18.96 188.256 19.005 188.676 19.095C189.096 19.175 189.411 19.255 189.621 19.335L189.291 20.805C189.091 20.715 188.836 20.635 188.526 20.565C188.216 20.485 187.856 20.445 187.446 20.445C187.076 20.445 186.776 20.51 186.546 20.64C186.316 20.76 186.201 20.95 186.201 21.21C186.201 21.34 186.221 21.455 186.261 21.555C186.311 21.655 186.391 21.75 186.501 21.84C186.611 21.92 186.756 22.005 186.936 22.095C187.116 22.175 187.336 22.26 187.596 22.35C188.026 22.51 188.391 22.67 188.691 22.83C188.991 22.98 189.236 23.155 189.426 23.355C189.626 23.545 189.771 23.765 189.861 24.015C189.951 24.265 189.996 24.565 189.996 24.915C189.996 25.665 189.716 26.235 189.156 26.625C188.606 27.005 187.816 27.195 186.786 27.195C186.096 27.195 185.541 27.135 185.121 27.015C184.701 26.905 184.406 26.815 184.236 26.745L184.551 25.23C184.821 25.34 185.141 25.445 185.511 25.545C185.891 25.645 186.321 25.695 186.801 25.695ZM191.601 17.085L193.416 16.785V19.155H196.206V20.67H193.416V23.865C193.416 24.495 193.516 24.945 193.716 25.215C193.916 25.485 194.256 25.62 194.736 25.62C195.066 25.62 195.356 25.585 195.606 25.515C195.866 25.445 196.071 25.38 196.221 25.32L196.521 26.76C196.311 26.85 196.036 26.94 195.696 27.03C195.356 27.13 194.956 27.18 194.496 27.18C193.936 27.18 193.466 27.105 193.086 26.955C192.716 26.805 192.421 26.59 192.201 26.31C191.981 26.02 191.826 25.675 191.736 25.275C191.646 24.865 191.601 24.4 191.601 23.88V17.085ZM204.88 23.07C204.88 23.69 204.79 24.255 204.61 24.765C204.43 25.275 204.175 25.71 203.845 26.07C203.515 26.43 203.115 26.71 202.645 26.91C202.185 27.11 201.675 27.21 201.115 27.21C200.555 27.21 200.045 27.11 199.585 26.91C199.125 26.71 198.73 26.43 198.4 26.07C198.07 25.71 197.81 25.275 197.62 24.765C197.44 24.255 197.35 23.69 197.35 23.07C197.35 22.45 197.44 21.89 197.62 21.39C197.81 20.88 198.07 20.445 198.4 20.085C198.74 19.725 199.14 19.45 199.6 19.26C200.06 19.06 200.565 18.96 201.115 18.96C201.665 18.96 202.17 19.06 202.63 19.26C203.1 19.45 203.5 19.725 203.83 20.085C204.16 20.445 204.415 20.88 204.595 21.39C204.785 21.89 204.88 22.45 204.88 23.07ZM203.02 23.07C203.02 22.29 202.85 21.675 202.51 21.225C202.18 20.765 201.715 20.535 201.115 20.535C200.515 20.535 200.045 20.765 199.705 21.225C199.375 21.675 199.21 22.29 199.21 23.07C199.21 23.86 199.375 24.485 199.705 24.945C200.045 25.405 200.515 25.635 201.115 25.635C201.715 25.635 202.18 25.405 202.51 24.945C202.85 24.485 203.02 23.86 203.02 23.07ZM211.22 20.79C211.07 20.74 210.86 20.69 210.59 20.64C210.33 20.58 210.025 20.55 209.675 20.55C209.475 20.55 209.26 20.57 209.03 20.61C208.81 20.65 208.655 20.685 208.565 20.715V27H206.75V19.53C207.1 19.4 207.535 19.28 208.055 19.17C208.585 19.05 209.17 18.99 209.81 18.99C209.93 18.99 210.07 19 210.23 19.02C210.39 19.03 210.55 19.05 210.71 19.08C210.87 19.1 211.025 19.13 211.175 19.17C211.325 19.2 211.445 19.23 211.535 19.26L211.22 20.79ZM212.365 23.115C212.365 22.425 212.465 21.82 212.665 21.3C212.875 20.78 213.15 20.35 213.49 20.01C213.83 19.66 214.22 19.4 214.66 19.23C215.1 19.05 215.55 18.96 216.01 18.96C217.09 18.96 217.93 19.295 218.53 19.965C219.14 20.635 219.445 21.635 219.445 22.965C219.445 23.065 219.44 23.18 219.43 23.31C219.43 23.43 219.425 23.54 219.415 23.64H214.24C214.29 24.27 214.51 24.76 214.9 25.11C215.3 25.45 215.875 25.62 216.625 25.62C217.065 25.62 217.465 25.58 217.825 25.5C218.195 25.42 218.485 25.335 218.695 25.245L218.935 26.73C218.835 26.78 218.695 26.835 218.515 26.895C218.345 26.945 218.145 26.99 217.915 27.03C217.695 27.08 217.455 27.12 217.195 27.15C216.935 27.18 216.67 27.195 216.4 27.195C215.71 27.195 215.11 27.095 214.6 26.895C214.09 26.685 213.67 26.4 213.34 26.04C213.01 25.67 212.765 25.24 212.605 24.75C212.445 24.25 212.365 23.705 212.365 23.115ZM217.63 22.305C217.63 22.055 217.595 21.82 217.525 21.6C217.455 21.37 217.35 21.175 217.21 21.015C217.08 20.845 216.915 20.715 216.715 20.625C216.525 20.525 216.295 20.475 216.025 20.475C215.745 20.475 215.5 20.53 215.29 20.64C215.08 20.74 214.9 20.875 214.75 21.045C214.61 21.215 214.5 21.41 214.42 21.63C214.34 21.85 214.285 22.075 214.255 22.305H217.63Z" fill="white"/>
</svg>
