<svg width="218" height="43" viewBox="0 0 218 43" fill="none" xmlns="http://www.w3.org/2000/svg">
<rect width="218" height="43" rx="10" fill="#083248"/>
<g clip-path="url(#clip0_10_18)">
<path d="M20.9837 20.895L10.0974 32.3006C10.2197 32.7338 10.4394 33.1334 10.7397 33.4687C11.04 33.804 11.4131 34.0662 11.8303 34.2353C12.2475 34.4044 12.6978 34.4758 13.1469 34.4441C13.5959 34.4125 14.0318 34.2786 14.4211 34.0527L26.6703 27.0764L20.9837 20.895Z" fill="#EA4335"/>
<path d="M31.9917 18.9564L26.6948 15.9224L20.7324 21.1545L26.719 27.0601L31.9756 24.0586C32.4413 23.8148 32.8314 23.4481 33.1035 22.9984C33.3757 22.5487 33.5195 22.0331 33.5195 21.5074C33.5195 20.9818 33.3757 20.4662 33.1035 20.0165C32.8314 19.5668 32.4413 19.2001 31.9756 18.9563L31.9917 18.9564Z" fill="#FBBC04"/>
<path d="M10.0974 10.6577C10.0317 10.901 9.9989 11.152 10 11.404V31.5542C10.0007 31.8061 10.0334 32.0569 10.0974 32.3006L21.3569 21.1871L10.0974 10.6577Z" fill="#4285F4"/>
<path d="M21.0648 21.4792L26.6946 15.9225L14.4617 8.91371C14.0015 8.64417 13.478 8.50143 12.9446 8.50001C11.621 8.49743 10.4574 9.37592 10.0974 10.6497L21.0648 21.4792Z" fill="#34A853"/>
</g>
<path d="M46.6545 25.44C46.7645 25.45 46.9095 25.46 47.0895 25.47C47.2695 25.47 47.5145 25.47 47.8245 25.47C49.0945 25.47 50.0395 25.15 50.6595 24.51C51.2895 23.86 51.6045 22.955 51.6045 21.795C51.6045 20.615 51.2995 19.71 50.6895 19.08C50.0795 18.45 49.1345 18.135 47.8545 18.135C47.2945 18.135 46.8945 18.15 46.6545 18.18V25.44ZM53.5845 21.795C53.5845 22.695 53.4445 23.48 53.1645 24.15C52.8845 24.81 52.4845 25.365 51.9645 25.815C51.4545 26.255 50.8345 26.585 50.1045 26.805C49.3845 27.015 48.5845 27.12 47.7045 27.12C47.2845 27.12 46.8095 27.1 46.2795 27.06C45.7495 27.03 45.2445 26.96 44.7645 26.85V16.755C45.2445 16.645 45.7545 16.575 46.2945 16.545C46.8345 16.515 47.3145 16.5 47.7345 16.5C48.6045 16.5 49.3995 16.605 50.1195 16.815C50.8395 17.015 51.4545 17.335 51.9645 17.775C52.4845 18.205 52.8845 18.755 53.1645 19.425C53.4445 20.085 53.5845 20.875 53.5845 21.795ZM62.6533 23.07C62.6533 23.69 62.5633 24.255 62.3833 24.765C62.2033 25.275 61.9483 25.71 61.6183 26.07C61.2883 26.43 60.8883 26.71 60.4183 26.91C59.9583 27.11 59.4483 27.21 58.8883 27.21C58.3283 27.21 57.8183 27.11 57.3583 26.91C56.8983 26.71 56.5033 26.43 56.1733 26.07C55.8433 25.71 55.5833 25.275 55.3933 24.765C55.2133 24.255 55.1233 23.69 55.1233 23.07C55.1233 22.45 55.2133 21.89 55.3933 21.39C55.5833 20.88 55.8433 20.445 56.1733 20.085C56.5133 19.725 56.9133 19.45 57.3733 19.26C57.8333 19.06 58.3383 18.96 58.8883 18.96C59.4383 18.96 59.9433 19.06 60.4033 19.26C60.8733 19.45 61.2733 19.725 61.6033 20.085C61.9333 20.445 62.1883 20.88 62.3683 21.39C62.5583 21.89 62.6533 22.45 62.6533 23.07ZM60.7933 23.07C60.7933 22.29 60.6233 21.675 60.2833 21.225C59.9533 20.765 59.4883 20.535 58.8883 20.535C58.2883 20.535 57.8183 20.765 57.4783 21.225C57.1483 21.675 56.9833 22.29 56.9833 23.07C56.9833 23.86 57.1483 24.485 57.4783 24.945C57.8183 25.405 58.2883 25.635 58.8883 25.635C59.4883 25.635 59.9533 25.405 60.2833 24.945C60.6233 24.485 60.7933 23.86 60.7933 23.07ZM69.042 22.065C68.812 22.945 68.562 23.805 68.292 24.645C68.032 25.475 67.772 26.26 67.512 27H66.027C65.827 26.54 65.617 26.015 65.397 25.425C65.177 24.835 64.957 24.205 64.737 23.535C64.517 22.865 64.297 22.16 64.077 21.42C63.857 20.68 63.642 19.925 63.432 19.155H65.352C65.442 19.575 65.547 20.03 65.667 20.52C65.787 21 65.912 21.495 66.042 22.005C66.172 22.505 66.307 22.995 66.447 23.475C66.587 23.955 66.727 24.395 66.867 24.795C67.017 24.335 67.162 23.86 67.302 23.37C67.452 22.88 67.592 22.39 67.722 21.9C67.852 21.41 67.972 20.935 68.082 20.475C68.202 20.005 68.307 19.565 68.397 19.155H69.792C69.882 19.565 69.982 20.005 70.092 20.475C70.202 20.935 70.317 21.41 70.437 21.9C70.567 22.39 70.702 22.88 70.842 23.37C70.992 23.86 71.142 24.335 71.292 24.795C71.422 24.395 71.557 23.955 71.697 23.475C71.837 22.995 71.972 22.505 72.102 22.005C72.242 21.495 72.372 21 72.492 20.52C72.612 20.03 72.717 19.575 72.807 19.155H74.682C74.472 19.925 74.257 20.68 74.037 21.42C73.817 22.16 73.597 22.865 73.377 23.535C73.157 24.205 72.937 24.835 72.717 25.425C72.497 26.015 72.282 26.54 72.072 27H70.602C70.342 26.26 70.072 25.475 69.792 24.645C69.522 23.805 69.272 22.945 69.042 22.065ZM76.0661 19.41C76.4161 19.31 76.8711 19.215 77.4311 19.125C77.9911 19.035 78.6111 18.99 79.2911 18.99C79.9311 18.99 80.4661 19.08 80.8961 19.26C81.3261 19.43 81.6661 19.675 81.9161 19.995C82.1761 20.305 82.3561 20.685 82.4561 21.135C82.5661 21.575 82.6211 22.06 82.6211 22.59V27H80.8061V22.875C80.8061 22.455 80.7761 22.1 80.7161 21.81C80.6661 21.51 80.5761 21.27 80.4461 21.09C80.3261 20.9 80.1561 20.765 79.9361 20.685C79.7261 20.595 79.4661 20.55 79.1561 20.55C78.9261 20.55 78.6861 20.565 78.4361 20.595C78.1861 20.625 78.0011 20.65 77.8811 20.67V27H76.0661V19.41ZM87.5705 27.15C87.0305 27.14 86.5805 27.08 86.2205 26.97C85.8705 26.86 85.5905 26.705 85.3805 26.505C85.1705 26.295 85.0205 26.04 84.9305 25.74C84.8505 25.43 84.8105 25.08 84.8105 24.69V15.66L86.6255 15.36V24.345C86.6255 24.565 86.6405 24.75 86.6705 24.9C86.7105 25.05 86.7755 25.18 86.8655 25.29C86.9555 25.39 87.0755 25.47 87.2255 25.53C87.3855 25.58 87.5855 25.62 87.8255 25.65L87.5705 27.15ZM96.3887 23.07C96.3887 23.69 96.2987 24.255 96.1187 24.765C95.9387 25.275 95.6837 25.71 95.3537 26.07C95.0237 26.43 94.6237 26.71 94.1537 26.91C93.6937 27.11 93.1837 27.21 92.6237 27.21C92.0637 27.21 91.5537 27.11 91.0937 26.91C90.6337 26.71 90.2387 26.43 89.9087 26.07C89.5787 25.71 89.3187 25.275 89.1287 24.765C88.9487 24.255 88.8587 23.69 88.8587 23.07C88.8587 22.45 88.9487 21.89 89.1287 21.39C89.3187 20.88 89.5787 20.445 89.9087 20.085C90.2487 19.725 90.6487 19.45 91.1087 19.26C91.5687 19.06 92.0737 18.96 92.6237 18.96C93.1737 18.96 93.6787 19.06 94.1387 19.26C94.6087 19.45 95.0087 19.725 95.3387 20.085C95.6687 20.445 95.9237 20.88 96.1037 21.39C96.2937 21.89 96.3887 22.45 96.3887 23.07ZM94.5287 23.07C94.5287 22.29 94.3587 21.675 94.0187 21.225C93.6887 20.765 93.2237 20.535 92.6237 20.535C92.0237 20.535 91.5537 20.765 91.2137 21.225C90.8837 21.675 90.7187 22.29 90.7187 23.07C90.7187 23.86 90.8837 24.485 91.2137 24.945C91.5537 25.405 92.0237 25.635 92.6237 25.635C93.2237 25.635 93.6887 25.405 94.0187 24.945C94.3587 24.485 94.5287 23.86 94.5287 23.07ZM101.019 25.725C101.579 25.725 102.004 25.695 102.294 25.635V23.625C102.194 23.595 102.049 23.565 101.859 23.535C101.669 23.505 101.459 23.49 101.229 23.49C101.029 23.49 100.824 23.505 100.614 23.535C100.414 23.565 100.229 23.62 100.059 23.7C99.8985 23.78 99.7685 23.895 99.6685 24.045C99.5685 24.185 99.5185 24.365 99.5185 24.585C99.5185 25.015 99.6535 25.315 99.9235 25.485C100.194 25.645 100.559 25.725 101.019 25.725ZM100.869 18.96C101.469 18.96 101.974 19.035 102.384 19.185C102.794 19.335 103.119 19.545 103.359 19.815C103.609 20.085 103.784 20.415 103.884 20.805C103.994 21.185 104.049 21.605 104.049 22.065V26.82C103.769 26.88 103.344 26.95 102.774 27.03C102.214 27.12 101.579 27.165 100.869 27.165C100.399 27.165 99.9685 27.12 99.5785 27.03C99.1885 26.94 98.8535 26.795 98.5735 26.595C98.3035 26.395 98.0885 26.135 97.9285 25.815C97.7785 25.495 97.7035 25.1 97.7035 24.63C97.7035 24.18 97.7885 23.8 97.9585 23.49C98.1385 23.18 98.3785 22.93 98.6785 22.74C98.9785 22.54 99.3235 22.4 99.7135 22.32C100.114 22.23 100.529 22.185 100.959 22.185C101.159 22.185 101.369 22.2 101.589 22.23C101.809 22.25 102.044 22.29 102.294 22.35V22.05C102.294 21.84 102.269 21.64 102.219 21.45C102.169 21.26 102.079 21.095 101.949 20.955C101.829 20.805 101.664 20.69 101.454 20.61C101.254 20.53 100.999 20.49 100.689 20.49C100.269 20.49 99.8835 20.52 99.5335 20.58C99.1835 20.64 98.8985 20.71 98.6785 20.79L98.4535 19.32C98.6835 19.24 99.0185 19.16 99.4585 19.08C99.8985 19 100.369 18.96 100.869 18.96ZM107.696 23.055C107.696 23.855 107.886 24.485 108.266 24.945C108.646 25.395 109.171 25.62 109.841 25.62C110.131 25.62 110.376 25.61 110.576 25.59C110.786 25.56 110.956 25.53 111.086 25.5V21C110.926 20.89 110.711 20.79 110.441 20.7C110.181 20.6 109.901 20.55 109.601 20.55C108.941 20.55 108.456 20.775 108.146 21.225C107.846 21.675 107.696 22.285 107.696 23.055ZM112.901 26.76C112.541 26.87 112.086 26.97 111.536 27.06C110.996 27.15 110.426 27.195 109.826 27.195C109.206 27.195 108.651 27.1 108.161 26.91C107.671 26.72 107.251 26.45 106.901 26.1C106.561 25.74 106.296 25.31 106.106 24.81C105.926 24.3 105.836 23.73 105.836 23.1C105.836 22.48 105.911 21.92 106.061 21.42C106.221 20.91 106.451 20.475 106.751 20.115C107.051 19.755 107.416 19.48 107.846 19.29C108.276 19.09 108.771 18.99 109.331 18.99C109.711 18.99 110.046 19.035 110.336 19.125C110.626 19.215 110.876 19.315 111.086 19.425V15.66L112.901 15.36V26.76ZM125.803 23.07C125.803 23.69 125.713 24.255 125.533 24.765C125.353 25.275 125.098 25.71 124.768 26.07C124.438 26.43 124.038 26.71 123.568 26.91C123.108 27.11 122.598 27.21 122.038 27.21C121.478 27.21 120.968 27.11 120.508 26.91C120.048 26.71 119.653 26.43 119.323 26.07C118.993 25.71 118.733 25.275 118.543 24.765C118.363 24.255 118.273 23.69 118.273 23.07C118.273 22.45 118.363 21.89 118.543 21.39C118.733 20.88 118.993 20.445 119.323 20.085C119.663 19.725 120.063 19.45 120.523 19.26C120.983 19.06 121.488 18.96 122.038 18.96C122.588 18.96 123.093 19.06 123.553 19.26C124.023 19.45 124.423 19.725 124.753 20.085C125.083 20.445 125.338 20.88 125.518 21.39C125.708 21.89 125.803 22.45 125.803 23.07ZM123.943 23.07C123.943 22.29 123.773 21.675 123.433 21.225C123.103 20.765 122.638 20.535 122.038 20.535C121.438 20.535 120.968 20.765 120.628 21.225C120.298 21.675 120.133 22.29 120.133 23.07C120.133 23.86 120.298 24.485 120.628 24.945C120.968 25.405 121.438 25.635 122.038 25.635C122.638 25.635 123.103 25.405 123.433 24.945C123.773 24.485 123.943 23.86 123.943 23.07ZM127.673 19.41C128.023 19.31 128.478 19.215 129.038 19.125C129.598 19.035 130.218 18.99 130.898 18.99C131.538 18.99 132.073 19.08 132.503 19.26C132.933 19.43 133.273 19.675 133.523 19.995C133.783 20.305 133.963 20.685 134.063 21.135C134.173 21.575 134.228 22.06 134.228 22.59V27H132.413V22.875C132.413 22.455 132.383 22.1 132.323 21.81C132.273 21.51 132.183 21.27 132.053 21.09C131.933 20.9 131.763 20.765 131.543 20.685C131.333 20.595 131.073 20.55 130.763 20.55C130.533 20.55 130.293 20.565 130.043 20.595C129.793 20.625 129.608 20.65 129.488 20.67V27H127.673V19.41ZM142.978 16.5C144.488 16.5 145.643 16.775 146.443 17.325C147.253 17.875 147.658 18.735 147.658 19.905C147.658 20.515 147.548 21.04 147.328 21.48C147.118 21.91 146.808 22.265 146.398 22.545C145.988 22.815 145.488 23.015 144.898 23.145C144.308 23.275 143.633 23.34 142.873 23.34H141.928V27H140.038V16.755C140.478 16.655 140.963 16.59 141.493 16.56C142.033 16.52 142.528 16.5 142.978 16.5ZM143.113 18.135C142.633 18.135 142.238 18.15 141.928 18.18V21.72H142.843C143.753 21.72 144.453 21.595 144.943 21.345C145.433 21.085 145.678 20.6 145.678 19.89C145.678 19.55 145.613 19.265 145.483 19.035C145.353 18.805 145.173 18.625 144.943 18.495C144.713 18.365 144.438 18.275 144.118 18.225C143.808 18.165 143.473 18.135 143.113 18.135ZM152.024 27.15C151.484 27.14 151.034 27.08 150.674 26.97C150.324 26.86 150.044 26.705 149.834 26.505C149.624 26.295 149.474 26.04 149.384 25.74C149.304 25.43 149.264 25.08 149.264 24.69V15.66L151.079 15.36V24.345C151.079 24.565 151.094 24.75 151.124 24.9C151.164 25.05 151.229 25.18 151.319 25.29C151.409 25.39 151.529 25.47 151.679 25.53C151.839 25.58 152.039 25.62 152.279 25.65L152.024 27.15ZM156.507 25.725C157.067 25.725 157.492 25.695 157.782 25.635V23.625C157.682 23.595 157.537 23.565 157.347 23.535C157.157 23.505 156.947 23.49 156.717 23.49C156.517 23.49 156.312 23.505 156.102 23.535C155.902 23.565 155.717 23.62 155.547 23.7C155.387 23.78 155.257 23.895 155.157 24.045C155.057 24.185 155.007 24.365 155.007 24.585C155.007 25.015 155.142 25.315 155.412 25.485C155.682 25.645 156.047 25.725 156.507 25.725ZM156.357 18.96C156.957 18.96 157.462 19.035 157.872 19.185C158.282 19.335 158.607 19.545 158.847 19.815C159.097 20.085 159.272 20.415 159.372 20.805C159.482 21.185 159.537 21.605 159.537 22.065V26.82C159.257 26.88 158.832 26.95 158.262 27.03C157.702 27.12 157.067 27.165 156.357 27.165C155.887 27.165 155.457 27.12 155.067 27.03C154.677 26.94 154.342 26.795 154.062 26.595C153.792 26.395 153.577 26.135 153.417 25.815C153.267 25.495 153.192 25.1 153.192 24.63C153.192 24.18 153.277 23.8 153.447 23.49C153.627 23.18 153.867 22.93 154.167 22.74C154.467 22.54 154.812 22.4 155.202 22.32C155.602 22.23 156.017 22.185 156.447 22.185C156.647 22.185 156.857 22.2 157.077 22.23C157.297 22.25 157.532 22.29 157.782 22.35V22.05C157.782 21.84 157.757 21.64 157.707 21.45C157.657 21.26 157.567 21.095 157.437 20.955C157.317 20.805 157.152 20.69 156.942 20.61C156.742 20.53 156.487 20.49 156.177 20.49C155.757 20.49 155.372 20.52 155.022 20.58C154.672 20.64 154.387 20.71 154.167 20.79L153.942 19.32C154.172 19.24 154.507 19.16 154.947 19.08C155.387 19 155.857 18.96 156.357 18.96ZM167.974 19.155C167.164 22.135 166.224 24.835 165.154 27.255C164.954 27.705 164.749 28.09 164.539 28.41C164.329 28.73 164.094 28.995 163.834 29.205C163.574 29.415 163.284 29.565 162.964 29.655C162.644 29.755 162.274 29.805 161.854 29.805C161.574 29.805 161.294 29.775 161.014 29.715C160.744 29.655 160.539 29.59 160.399 29.52L160.729 28.065C161.089 28.205 161.444 28.275 161.794 28.275C162.264 28.275 162.629 28.16 162.889 27.93C163.159 27.71 163.394 27.365 163.594 26.895C163.024 25.795 162.474 24.595 161.944 23.295C161.424 21.995 160.959 20.615 160.549 19.155H162.484C162.584 19.575 162.704 20.03 162.844 20.52C162.994 21.01 163.154 21.51 163.324 22.02C163.494 22.52 163.674 23.02 163.864 23.52C164.054 24.02 164.244 24.485 164.434 24.915C164.754 24.025 165.054 23.08 165.334 22.08C165.614 21.07 165.869 20.095 166.099 19.155H167.974ZM171.312 25.695C171.792 25.695 172.142 25.64 172.362 25.53C172.582 25.41 172.692 25.21 172.692 24.93C172.692 24.67 172.572 24.455 172.332 24.285C172.102 24.115 171.717 23.93 171.177 23.73C170.847 23.61 170.542 23.485 170.262 23.355C169.992 23.215 169.757 23.055 169.557 22.875C169.357 22.695 169.197 22.48 169.077 22.23C168.967 21.97 168.912 21.655 168.912 21.285C168.912 20.565 169.177 20 169.707 19.59C170.237 19.17 170.957 18.96 171.867 18.96C172.327 18.96 172.767 19.005 173.187 19.095C173.607 19.175 173.922 19.255 174.132 19.335L173.802 20.805C173.602 20.715 173.347 20.635 173.037 20.565C172.727 20.485 172.367 20.445 171.957 20.445C171.587 20.445 171.287 20.51 171.057 20.64C170.827 20.76 170.712 20.95 170.712 21.21C170.712 21.34 170.732 21.455 170.772 21.555C170.822 21.655 170.902 21.75 171.012 21.84C171.122 21.92 171.267 22.005 171.447 22.095C171.627 22.175 171.847 22.26 172.107 22.35C172.537 22.51 172.902 22.67 173.202 22.83C173.502 22.98 173.747 23.155 173.937 23.355C174.137 23.545 174.282 23.765 174.372 24.015C174.462 24.265 174.507 24.565 174.507 24.915C174.507 25.665 174.227 26.235 173.667 26.625C173.117 27.005 172.327 27.195 171.297 27.195C170.607 27.195 170.052 27.135 169.632 27.015C169.212 26.905 168.917 26.815 168.747 26.745L169.062 25.23C169.332 25.34 169.652 25.445 170.022 25.545C170.402 25.645 170.832 25.695 171.312 25.695ZM176.113 17.085L177.928 16.785V19.155H180.718V20.67H177.928V23.865C177.928 24.495 178.028 24.945 178.228 25.215C178.428 25.485 178.768 25.62 179.248 25.62C179.578 25.62 179.868 25.585 180.118 25.515C180.378 25.445 180.583 25.38 180.733 25.32L181.033 26.76C180.823 26.85 180.548 26.94 180.208 27.03C179.868 27.13 179.468 27.18 179.008 27.18C178.448 27.18 177.978 27.105 177.598 26.955C177.228 26.805 176.933 26.59 176.713 26.31C176.493 26.02 176.338 25.675 176.248 25.275C176.158 24.865 176.113 24.4 176.113 23.88V17.085ZM189.392 23.07C189.392 23.69 189.302 24.255 189.122 24.765C188.942 25.275 188.687 25.71 188.357 26.07C188.027 26.43 187.627 26.71 187.157 26.91C186.697 27.11 186.187 27.21 185.627 27.21C185.067 27.21 184.557 27.11 184.097 26.91C183.637 26.71 183.242 26.43 182.912 26.07C182.582 25.71 182.322 25.275 182.132 24.765C181.952 24.255 181.862 23.69 181.862 23.07C181.862 22.45 181.952 21.89 182.132 21.39C182.322 20.88 182.582 20.445 182.912 20.085C183.252 19.725 183.652 19.45 184.112 19.26C184.572 19.06 185.077 18.96 185.627 18.96C186.177 18.96 186.682 19.06 187.142 19.26C187.612 19.45 188.012 19.725 188.342 20.085C188.672 20.445 188.927 20.88 189.107 21.39C189.297 21.89 189.392 22.45 189.392 23.07ZM187.532 23.07C187.532 22.29 187.362 21.675 187.022 21.225C186.692 20.765 186.227 20.535 185.627 20.535C185.027 20.535 184.557 20.765 184.217 21.225C183.887 21.675 183.722 22.29 183.722 23.07C183.722 23.86 183.887 24.485 184.217 24.945C184.557 25.405 185.027 25.635 185.627 25.635C186.227 25.635 186.692 25.405 187.022 24.945C187.362 24.485 187.532 23.86 187.532 23.07ZM195.731 20.79C195.581 20.74 195.371 20.69 195.101 20.64C194.841 20.58 194.536 20.55 194.186 20.55C193.986 20.55 193.771 20.57 193.541 20.61C193.321 20.65 193.166 20.685 193.076 20.715V27H191.261V19.53C191.611 19.4 192.046 19.28 192.566 19.17C193.096 19.05 193.681 18.99 194.321 18.99C194.441 18.99 194.581 19 194.741 19.02C194.901 19.03 195.061 19.05 195.221 19.08C195.381 19.1 195.536 19.13 195.686 19.17C195.836 19.2 195.956 19.23 196.046 19.26L195.731 20.79ZM196.876 23.115C196.876 22.425 196.976 21.82 197.176 21.3C197.386 20.78 197.661 20.35 198.001 20.01C198.341 19.66 198.731 19.4 199.171 19.23C199.611 19.05 200.061 18.96 200.521 18.96C201.601 18.96 202.441 19.295 203.041 19.965C203.651 20.635 203.956 21.635 203.956 22.965C203.956 23.065 203.951 23.18 203.941 23.31C203.941 23.43 203.936 23.54 203.926 23.64H198.751C198.801 24.27 199.021 24.76 199.411 25.11C199.811 25.45 200.386 25.62 201.136 25.62C201.576 25.62 201.976 25.58 202.336 25.5C202.706 25.42 202.996 25.335 203.206 25.245L203.446 26.73C203.346 26.78 203.206 26.835 203.026 26.895C202.856 26.945 202.656 26.99 202.426 27.03C202.206 27.08 201.966 27.12 201.706 27.15C201.446 27.18 201.181 27.195 200.911 27.195C200.221 27.195 199.621 27.095 199.111 26.895C198.601 26.685 198.181 26.4 197.851 26.04C197.521 25.67 197.276 25.24 197.116 24.75C196.956 24.25 196.876 23.705 196.876 23.115ZM202.141 22.305C202.141 22.055 202.106 21.82 202.036 21.6C201.966 21.37 201.861 21.175 201.721 21.015C201.591 20.845 201.426 20.715 201.226 20.625C201.036 20.525 200.806 20.475 200.536 20.475C200.256 20.475 200.011 20.53 199.801 20.64C199.591 20.74 199.411 20.875 199.261 21.045C199.121 21.215 199.011 21.41 198.931 21.63C198.851 21.85 198.796 22.075 198.766 22.305H202.141Z" fill="white"/>
<defs>
<clipPath id="clip0_10_18">
<rect width="23.5194" height="26" fill="white" transform="translate(10 8.5)"/>
</clipPath>
</defs>
</svg>
