<svg width="323" height="56" viewBox="0 0 323 56" fill="none" xmlns="http://www.w3.org/2000/svg">
<rect width="323" height="56" rx="20" fill="#083248"/>
<path d="M34.602 36.83C33.458 36.83 32.4313 36.654 31.522 36.302C30.6127 35.95 29.8427 35.4367 29.212 34.762C28.5813 34.0727 28.0973 33.2367 27.76 32.254C27.4227 31.2713 27.254 30.142 27.254 28.866C27.254 27.59 27.4447 26.4607 27.826 25.478C28.222 24.4953 28.7573 23.6667 29.432 22.992C30.1067 22.3027 30.8987 21.782 31.808 21.43C32.7173 21.078 33.6927 20.902 34.734 20.902C35.3647 20.902 35.9367 20.9533 36.45 21.056C36.9633 21.144 37.4107 21.2467 37.792 21.364C38.1733 21.4813 38.4887 21.606 38.738 21.738C38.9873 21.87 39.1633 21.9653 39.266 22.024L38.452 24.29C38.1 24.07 37.594 23.8647 36.934 23.674C36.2887 23.4687 35.5847 23.366 34.822 23.366C34.162 23.366 33.546 23.4833 32.974 23.718C32.402 23.938 31.9033 24.2753 31.478 24.73C31.0673 25.1847 30.7447 25.7567 30.51 26.446C30.2753 27.1353 30.158 27.9347 30.158 28.844C30.158 29.6507 30.246 30.3913 30.422 31.066C30.6127 31.7407 30.8987 32.3273 31.28 32.826C31.6613 33.31 32.1453 33.6913 32.732 33.97C33.3187 34.234 34.0227 34.366 34.844 34.366C35.8267 34.366 36.626 34.2707 37.242 34.08C37.858 33.8747 38.3347 33.684 38.672 33.508L39.42 35.774C39.244 35.8913 39.002 36.0087 38.694 36.126C38.4007 36.2433 38.0487 36.3607 37.638 36.478C37.2273 36.5807 36.7653 36.6613 36.252 36.72C35.7387 36.7933 35.1887 36.83 34.602 36.83ZM45.7273 36.72C44.9353 36.7053 44.2753 36.6173 43.7473 36.456C43.234 36.2947 42.8233 36.0673 42.5153 35.774C42.2073 35.466 41.9873 35.092 41.8553 34.652C41.738 34.1973 41.6793 33.684 41.6793 33.112V19.868L44.3413 19.428V32.606C44.3413 32.9287 44.3633 33.2 44.4073 33.42C44.466 33.64 44.5613 33.8307 44.6933 33.992C44.8253 34.1387 45.0013 34.256 45.2213 34.344C45.456 34.4173 45.7493 34.476 46.1013 34.52L45.7273 36.72ZM50.9385 36.5H48.2765V24.994H50.9385V36.5ZM51.2245 21.628C51.2245 22.1267 51.0632 22.5227 50.7405 22.816C50.4179 23.1093 50.0365 23.256 49.5965 23.256C49.1419 23.256 48.7532 23.1093 48.4305 22.816C48.1079 22.5227 47.9465 22.1267 47.9465 21.628C47.9465 21.1147 48.1079 20.7113 48.4305 20.418C48.7532 20.1247 49.1419 19.978 49.5965 19.978C50.0365 19.978 50.4179 20.1247 50.7405 20.418C51.0632 20.7113 51.2245 21.1147 51.2245 21.628ZM53.6966 30.802C53.6966 29.79 53.8433 28.9027 54.1366 28.14C54.4446 27.3773 54.848 26.7467 55.3466 26.248C55.8453 25.7347 56.4173 25.3533 57.0626 25.104C57.708 24.84 58.368 24.708 59.0426 24.708C60.6266 24.708 61.8586 25.1993 62.7386 26.182C63.6333 27.1647 64.0806 28.6313 64.0806 30.582C64.0806 30.7287 64.0733 30.8973 64.0586 31.088C64.0586 31.264 64.0513 31.4253 64.0366 31.572H56.4466C56.52 32.496 56.8426 33.2147 57.4146 33.728C58.0013 34.2267 58.8446 34.476 59.9446 34.476C60.59 34.476 61.1766 34.4173 61.7046 34.3C62.2473 34.1827 62.6726 34.058 62.9806 33.926L63.3326 36.104C63.186 36.1773 62.9806 36.258 62.7166 36.346C62.4673 36.4193 62.174 36.4853 61.8366 36.544C61.514 36.6173 61.162 36.676 60.7806 36.72C60.3993 36.764 60.0106 36.786 59.6146 36.786C58.6026 36.786 57.7226 36.6393 56.9746 36.346C56.2266 36.038 55.6106 35.62 55.1266 35.092C54.6426 34.5493 54.2833 33.9187 54.0486 33.2C53.814 32.4667 53.6966 31.6673 53.6966 30.802ZM61.4186 29.614C61.4186 29.2473 61.3673 28.9027 61.2646 28.58C61.162 28.2427 61.008 27.9567 60.8026 27.722C60.612 27.4727 60.37 27.282 60.0766 27.15C59.798 27.0033 59.4606 26.93 59.0646 26.93C58.654 26.93 58.2946 27.0107 57.9866 27.172C57.6786 27.3187 57.4146 27.5167 57.1946 27.766C56.9893 28.0153 56.828 28.3013 56.7106 28.624C56.5933 28.9467 56.5126 29.2767 56.4686 29.614H61.4186ZM66.903 25.368C67.4163 25.2213 68.0837 25.082 68.905 24.95C69.7263 24.818 70.6357 24.752 71.633 24.752C72.5717 24.752 73.3563 24.884 73.987 25.148C74.6177 25.3973 75.1163 25.7567 75.483 26.226C75.8643 26.6807 76.1283 27.238 76.275 27.898C76.4363 28.5433 76.517 29.2547 76.517 30.032V36.5H73.855V30.45C73.855 29.834 73.811 29.3133 73.723 28.888C73.6497 28.448 73.5177 28.096 73.327 27.832C73.151 27.5533 72.9017 27.3553 72.579 27.238C72.271 27.106 71.8897 27.04 71.435 27.04C71.0977 27.04 70.7457 27.062 70.379 27.106C70.0123 27.15 69.741 27.1867 69.565 27.216V36.5H66.903V25.368ZM79.6401 21.958L82.3021 21.518V24.994H86.3941V27.216H82.3021V31.902C82.3021 32.826 82.4488 33.486 82.7421 33.882C83.0355 34.278 83.5341 34.476 84.2381 34.476C84.7221 34.476 85.1475 34.4247 85.5141 34.322C85.8955 34.2193 86.1961 34.124 86.4161 34.036L86.8561 36.148C86.5481 36.28 86.1448 36.412 85.6461 36.544C85.1475 36.6907 84.5608 36.764 83.8861 36.764C83.0648 36.764 82.3755 36.654 81.8181 36.434C81.2755 36.214 80.8428 35.8987 80.5201 35.488C80.1975 35.0627 79.9701 34.5567 79.8381 33.97C79.7061 33.3687 79.6401 32.6867 79.6401 31.924V21.958Z" fill="#FFEBB3"/>
<rect x="135" width="188" height="56" rx="20" fill="#C59815"/>
<path d="M150.522 34.432C151.519 34.432 152.245 34.2633 152.7 33.926C153.155 33.5887 153.382 33.112 153.382 32.496C153.382 32.1293 153.301 31.814 153.14 31.55C152.993 31.286 152.773 31.0513 152.48 30.846C152.201 30.626 151.857 30.428 151.446 30.252C151.035 30.0613 150.566 29.878 150.038 29.702C149.51 29.5113 148.997 29.306 148.498 29.086C148.014 28.8513 147.581 28.5653 147.2 28.228C146.833 27.8907 146.533 27.4873 146.298 27.018C146.078 26.5487 145.968 25.984 145.968 25.324C145.968 23.9453 146.445 22.8673 147.398 22.09C148.351 21.298 149.649 20.902 151.292 20.902C152.245 20.902 153.089 21.012 153.822 21.232C154.57 21.4373 155.157 21.6647 155.582 21.914L154.724 24.158C154.225 23.8793 153.675 23.6667 153.074 23.52C152.487 23.3733 151.879 23.3 151.248 23.3C150.5 23.3 149.913 23.454 149.488 23.762C149.077 24.07 148.872 24.5027 148.872 25.06C148.872 25.3973 148.938 25.6907 149.07 25.94C149.217 26.1747 149.415 26.3873 149.664 26.578C149.928 26.7687 150.229 26.9447 150.566 27.106C150.918 27.2673 151.299 27.4213 151.71 27.568C152.429 27.832 153.067 28.1033 153.624 28.382C154.196 28.646 154.673 28.9687 155.054 29.35C155.45 29.7167 155.751 30.1567 155.956 30.67C156.161 31.1687 156.264 31.7773 156.264 32.496C156.264 33.8747 155.773 34.9453 154.79 35.708C153.822 36.456 152.399 36.83 150.522 36.83C149.891 36.83 149.312 36.786 148.784 36.698C148.271 36.6247 147.809 36.5293 147.398 36.412C147.002 36.2947 146.657 36.1773 146.364 36.06C146.071 35.928 145.836 35.8107 145.66 35.708L146.474 33.442C146.87 33.662 147.405 33.882 148.08 34.102C148.755 34.322 149.569 34.432 150.522 34.432ZM157.937 30.802C157.937 29.79 158.084 28.9027 158.377 28.14C158.685 27.3773 159.088 26.7467 159.587 26.248C160.086 25.7347 160.658 25.3533 161.303 25.104C161.948 24.84 162.608 24.708 163.283 24.708C164.867 24.708 166.099 25.1993 166.979 26.182C167.874 27.1647 168.321 28.6313 168.321 30.582C168.321 30.7287 168.314 30.8973 168.299 31.088C168.299 31.264 168.292 31.4253 168.277 31.572H160.687C160.76 32.496 161.083 33.2147 161.655 33.728C162.242 34.2267 163.085 34.476 164.185 34.476C164.83 34.476 165.417 34.4173 165.945 34.3C166.488 34.1827 166.913 34.058 167.221 33.926L167.573 36.104C167.426 36.1773 167.221 36.258 166.957 36.346C166.708 36.4193 166.414 36.4853 166.077 36.544C165.754 36.6173 165.402 36.676 165.021 36.72C164.64 36.764 164.251 36.786 163.855 36.786C162.843 36.786 161.963 36.6393 161.215 36.346C160.467 36.038 159.851 35.62 159.367 35.092C158.883 34.5493 158.524 33.9187 158.289 33.2C158.054 32.4667 157.937 31.6673 157.937 30.802ZM165.659 29.614C165.659 29.2473 165.608 28.9027 165.505 28.58C165.402 28.2427 165.248 27.9567 165.043 27.722C164.852 27.4727 164.61 27.282 164.317 27.15C164.038 27.0033 163.701 26.93 163.305 26.93C162.894 26.93 162.535 27.0107 162.227 27.172C161.919 27.3187 161.655 27.5167 161.435 27.766C161.23 28.0153 161.068 28.3013 160.951 28.624C160.834 28.9467 160.753 29.2767 160.709 29.614H165.659ZM177.699 27.392C177.479 27.3187 177.171 27.2453 176.775 27.172C176.394 27.084 175.947 27.04 175.433 27.04C175.14 27.04 174.825 27.0693 174.487 27.128C174.165 27.1867 173.937 27.238 173.805 27.282V36.5H171.143V25.544C171.657 25.3533 172.295 25.1773 173.057 25.016C173.835 24.84 174.693 24.752 175.631 24.752C175.807 24.752 176.013 24.7667 176.247 24.796C176.482 24.8107 176.717 24.84 176.951 24.884C177.186 24.9133 177.413 24.9573 177.633 25.016C177.853 25.06 178.029 25.104 178.161 25.148L177.699 27.392ZM183.351 36.5C182.618 34.9893 181.862 33.2587 181.085 31.308C180.322 29.3427 179.626 27.238 178.995 24.994H181.833C181.994 25.6393 182.178 26.336 182.383 27.084C182.603 27.8173 182.83 28.558 183.065 29.306C183.314 30.0393 183.564 30.758 183.813 31.462C184.077 32.1513 184.319 32.7747 184.539 33.332C184.759 32.7747 184.994 32.1513 185.243 31.462C185.492 30.758 185.734 30.0393 185.969 29.306C186.218 28.558 186.453 27.8173 186.673 27.084C186.893 26.336 187.084 25.6393 187.245 24.994H189.995C189.364 27.238 188.66 29.3427 187.883 31.308C187.12 33.2587 186.372 34.9893 185.639 36.5H183.351ZM194.667 36.5H192.005V24.994H194.667V36.5ZM194.953 21.628C194.953 22.1267 194.792 22.5227 194.469 22.816C194.146 23.1093 193.765 23.256 193.325 23.256C192.87 23.256 192.482 23.1093 192.159 22.816C191.836 22.5227 191.675 22.1267 191.675 21.628C191.675 21.1147 191.836 20.7113 192.159 20.418C192.482 20.1247 192.87 19.978 193.325 19.978C193.765 19.978 194.146 20.1247 194.469 20.418C194.792 20.7113 194.953 21.1147 194.953 21.628ZM197.425 30.758C197.425 29.9073 197.557 29.1153 197.821 28.382C198.085 27.634 198.459 26.9887 198.943 26.446C199.442 25.9033 200.043 25.478 200.747 25.17C201.451 24.862 202.243 24.708 203.123 24.708C204.208 24.708 205.235 24.906 206.203 25.302L205.631 27.48C205.323 27.348 204.971 27.238 204.575 27.15C204.194 27.062 203.783 27.018 203.343 27.018C202.302 27.018 201.51 27.348 200.967 28.008C200.424 28.6533 200.153 29.57 200.153 30.758C200.153 31.902 200.41 32.8113 200.923 33.486C201.436 34.146 202.302 34.476 203.519 34.476C203.974 34.476 204.421 34.432 204.861 34.344C205.301 34.256 205.682 34.146 206.005 34.014L206.379 36.214C206.086 36.3607 205.638 36.4927 205.037 36.61C204.45 36.7273 203.842 36.786 203.211 36.786C202.228 36.786 201.37 36.6393 200.637 36.346C199.918 36.038 199.317 35.62 198.833 35.092C198.364 34.5493 198.012 33.9113 197.777 33.178C197.542 32.43 197.425 31.6233 197.425 30.758ZM207.802 30.802C207.802 29.79 207.949 28.9027 208.242 28.14C208.55 27.3773 208.953 26.7467 209.452 26.248C209.951 25.7347 210.523 25.3533 211.168 25.104C211.813 24.84 212.473 24.708 213.148 24.708C214.732 24.708 215.964 25.1993 216.844 26.182C217.739 27.1647 218.186 28.6313 218.186 30.582C218.186 30.7287 218.179 30.8973 218.164 31.088C218.164 31.264 218.157 31.4253 218.142 31.572H210.552C210.625 32.496 210.948 33.2147 211.52 33.728C212.107 34.2267 212.95 34.476 214.05 34.476C214.695 34.476 215.282 34.4173 215.81 34.3C216.353 34.1827 216.778 34.058 217.086 33.926L217.438 36.104C217.291 36.1773 217.086 36.258 216.822 36.346C216.573 36.4193 216.279 36.4853 215.942 36.544C215.619 36.6173 215.267 36.676 214.886 36.72C214.505 36.764 214.116 36.786 213.72 36.786C212.708 36.786 211.828 36.6393 211.08 36.346C210.332 36.038 209.716 35.62 209.232 35.092C208.748 34.5493 208.389 33.9187 208.154 33.2C207.919 32.4667 207.802 31.6673 207.802 30.802ZM215.524 29.614C215.524 29.2473 215.473 28.9027 215.37 28.58C215.267 28.2427 215.113 27.9567 214.908 27.722C214.717 27.4727 214.475 27.282 214.182 27.15C213.903 27.0033 213.566 26.93 213.17 26.93C212.759 26.93 212.4 27.0107 212.092 27.172C211.784 27.3187 211.52 27.5167 211.3 27.766C211.095 28.0153 210.933 28.3013 210.816 28.624C210.699 28.9467 210.618 29.2767 210.574 29.614H215.524ZM230.587 21.1C232.802 21.1 234.496 21.5033 235.669 22.31C236.857 23.1167 237.451 24.378 237.451 26.094C237.451 26.9887 237.29 27.7587 236.967 28.404C236.659 29.0347 236.205 29.5553 235.603 29.966C235.002 30.362 234.269 30.6553 233.403 30.846C232.538 31.0367 231.548 31.132 230.433 31.132H229.047V36.5H226.275V21.474C226.921 21.3273 227.632 21.232 228.409 21.188C229.201 21.1293 229.927 21.1 230.587 21.1ZM230.785 23.498C230.081 23.498 229.502 23.52 229.047 23.564V28.756H230.389C231.724 28.756 232.751 28.5727 233.469 28.206C234.188 27.8247 234.547 27.1133 234.547 26.072C234.547 25.5733 234.452 25.1553 234.261 24.818C234.071 24.4807 233.807 24.2167 233.469 24.026C233.132 23.8353 232.729 23.7033 232.259 23.63C231.805 23.542 231.313 23.498 230.785 23.498ZM246.406 27.392C246.186 27.3187 245.878 27.2453 245.482 27.172C245.101 27.084 244.654 27.04 244.14 27.04C243.847 27.04 243.532 27.0693 243.194 27.128C242.872 27.1867 242.644 27.238 242.512 27.282V36.5H239.85V25.544C240.364 25.3533 241.002 25.1773 241.764 25.016C242.542 24.84 243.4 24.752 244.338 24.752C244.514 24.752 244.72 24.7667 244.954 24.796C245.189 24.8107 245.424 24.84 245.658 24.884C245.893 24.9133 246.12 24.9573 246.34 25.016C246.56 25.06 246.736 25.104 246.868 25.148L246.406 27.392ZM259.129 30.736C259.129 31.6453 258.997 32.474 258.733 33.222C258.469 33.97 258.095 34.608 257.611 35.136C257.127 35.664 256.541 36.0747 255.851 36.368C255.177 36.6613 254.429 36.808 253.607 36.808C252.786 36.808 252.038 36.6613 251.363 36.368C250.689 36.0747 250.109 35.664 249.625 35.136C249.141 34.608 248.76 33.97 248.481 33.222C248.217 32.474 248.085 31.6453 248.085 30.736C248.085 29.8267 248.217 29.0053 248.481 28.272C248.76 27.524 249.141 26.886 249.625 26.358C250.124 25.83 250.711 25.4267 251.385 25.148C252.06 24.8547 252.801 24.708 253.607 24.708C254.414 24.708 255.155 24.8547 255.829 25.148C256.519 25.4267 257.105 25.83 257.589 26.358C258.073 26.886 258.447 27.524 258.711 28.272C258.99 29.0053 259.129 29.8267 259.129 30.736ZM256.401 30.736C256.401 29.592 256.152 28.69 255.653 28.03C255.169 27.3553 254.487 27.018 253.607 27.018C252.727 27.018 252.038 27.3553 251.539 28.03C251.055 28.69 250.813 29.592 250.813 30.736C250.813 31.8947 251.055 32.8113 251.539 33.486C252.038 34.1607 252.727 34.498 253.607 34.498C254.487 34.498 255.169 34.1607 255.653 33.486C256.152 32.8113 256.401 31.8947 256.401 30.736ZM264.562 36.5C263.829 34.9893 263.073 33.2587 262.296 31.308C261.533 29.3427 260.837 27.238 260.206 24.994H263.044C263.205 25.6393 263.389 26.336 263.594 27.084C263.814 27.8173 264.041 28.558 264.276 29.306C264.525 30.0393 264.775 30.758 265.024 31.462C265.288 32.1513 265.53 32.7747 265.75 33.332C265.97 32.7747 266.205 32.1513 266.454 31.462C266.703 30.758 266.945 30.0393 267.18 29.306C267.429 28.558 267.664 27.8173 267.884 27.084C268.104 26.336 268.295 25.6393 268.456 24.994H271.206C270.575 27.238 269.871 29.3427 269.094 31.308C268.331 33.2587 267.583 34.9893 266.85 36.5H264.562ZM275.878 36.5H273.216V24.994H275.878V36.5ZM276.164 21.628C276.164 22.1267 276.003 22.5227 275.68 22.816C275.357 23.1093 274.976 23.256 274.536 23.256C274.081 23.256 273.693 23.1093 273.37 22.816C273.047 22.5227 272.886 22.1267 272.886 21.628C272.886 21.1147 273.047 20.7113 273.37 20.418C273.693 20.1247 274.081 19.978 274.536 19.978C274.976 19.978 275.357 20.1247 275.68 20.418C276.003 20.7113 276.164 21.1147 276.164 21.628ZM281.364 30.714C281.364 31.8873 281.643 32.8113 282.2 33.486C282.757 34.146 283.527 34.476 284.51 34.476C284.935 34.476 285.295 34.4613 285.588 34.432C285.896 34.388 286.145 34.344 286.336 34.3V27.7C286.101 27.5387 285.786 27.392 285.39 27.26C285.009 27.1133 284.598 27.04 284.158 27.04C283.19 27.04 282.479 27.37 282.024 28.03C281.584 28.69 281.364 29.5847 281.364 30.714ZM288.998 36.148C288.47 36.3093 287.803 36.456 286.996 36.588C286.204 36.72 285.368 36.786 284.488 36.786C283.579 36.786 282.765 36.6467 282.046 36.368C281.327 36.0893 280.711 35.6933 280.198 35.18C279.699 34.652 279.311 34.0213 279.032 33.288C278.768 32.54 278.636 31.704 278.636 30.78C278.636 29.8707 278.746 29.0493 278.966 28.316C279.201 27.568 279.538 26.93 279.978 26.402C280.418 25.874 280.953 25.4707 281.584 25.192C282.215 24.8987 282.941 24.752 283.762 24.752C284.319 24.752 284.811 24.818 285.236 24.95C285.661 25.082 286.028 25.2287 286.336 25.39V19.868L288.998 19.428V36.148ZM291.742 30.802C291.742 29.79 291.888 28.9027 292.182 28.14C292.49 27.3773 292.893 26.7467 293.392 26.248C293.89 25.7347 294.462 25.3533 295.108 25.104C295.753 24.84 296.413 24.708 297.088 24.708C298.672 24.708 299.904 25.1993 300.784 26.182C301.678 27.1647 302.126 28.6313 302.126 30.582C302.126 30.7287 302.118 30.8973 302.104 31.088C302.104 31.264 302.096 31.4253 302.082 31.572H294.492C294.565 32.496 294.888 33.2147 295.46 33.728C296.046 34.2267 296.89 34.476 297.99 34.476C298.635 34.476 299.222 34.4173 299.75 34.3C300.292 34.1827 300.718 34.058 301.026 33.926L301.378 36.104C301.231 36.1773 301.026 36.258 300.762 36.346C300.512 36.4193 300.219 36.4853 299.882 36.544C299.559 36.6173 299.207 36.676 298.826 36.72C298.444 36.764 298.056 36.786 297.66 36.786C296.648 36.786 295.768 36.6393 295.02 36.346C294.272 36.038 293.656 35.62 293.172 35.092C292.688 34.5493 292.328 33.9187 292.094 33.2C291.859 32.4667 291.742 31.6673 291.742 30.802ZM299.464 29.614C299.464 29.2473 299.412 28.9027 299.31 28.58C299.207 28.2427 299.053 27.9567 298.848 27.722C298.657 27.4727 298.415 27.282 298.122 27.15C297.843 27.0033 297.506 26.93 297.11 26.93C296.699 26.93 296.34 27.0107 296.032 27.172C295.724 27.3187 295.46 27.5167 295.24 27.766C295.034 28.0153 294.873 28.3013 294.756 28.624C294.638 28.9467 294.558 29.2767 294.514 29.614H299.464ZM311.504 27.392C311.284 27.3187 310.976 27.2453 310.58 27.172C310.199 27.084 309.751 27.04 309.238 27.04C308.945 27.04 308.629 27.0693 308.292 27.128C307.969 27.1867 307.742 27.238 307.61 27.282V36.5H304.948V25.544C305.461 25.3533 306.099 25.1773 306.862 25.016C307.639 24.84 308.497 24.752 309.436 24.752C309.612 24.752 309.817 24.7667 310.052 24.796C310.287 24.8107 310.521 24.84 310.756 24.884C310.991 24.9133 311.218 24.9573 311.438 25.016C311.658 25.06 311.834 25.104 311.966 25.148L311.504 27.392Z" fill="#FFFCF2"/>
</svg>
