<svg width="100" height="50" viewBox="0 0 100 50" fill="none" xmlns="http://www.w3.org/2000/svg">
<path d="M15 32.5H35C35.6875 32.5 36.25 31.9375 36.25 31.25C36.25 30.5625 35.6875 30 35 30H15C14.3125 30 13.75 30.5625 13.75 31.25C13.75 31.9375 14.3125 32.5 15 32.5ZM15 26.25H35C35.6875 26.25 36.25 25.6875 36.25 25C36.25 24.3125 35.6875 23.75 35 23.75H15C14.3125 23.75 13.75 24.3125 13.75 25C13.75 25.6875 14.3125 26.25 15 26.25ZM13.75 18.75C13.75 19.4375 14.3125 20 15 20H35C35.6875 20 36.25 19.4375 36.25 18.75C36.25 18.0625 35.6875 17.5 35 17.5H15C14.3125 17.5 13.75 18.0625 13.75 18.75Z" fill="white"/>
<path d="M53.51 20.105C53.73 20.485 53.975 20.95 54.245 21.5C54.515 22.05 54.79 22.63 55.07 23.24C55.35 23.84 55.625 24.455 55.895 25.085C56.175 25.705 56.43 26.28 56.66 26.81C56.89 26.28 57.14 25.705 57.41 25.085C57.68 24.455 57.955 23.84 58.235 23.24C58.515 22.63 58.79 22.05 59.06 21.5C59.33 20.95 59.575 20.485 59.795 20.105H61.505C61.595 20.865 61.68 21.675 61.76 22.535C61.84 23.385 61.91 24.26 61.97 25.16C62.04 26.05 62.1 26.95 62.15 27.86C62.21 28.76 62.26 29.64 62.3 30.5H60.44C60.4 29.29 60.35 28.045 60.29 26.765C60.24 25.485 60.16 24.245 60.05 23.045C59.94 23.275 59.81 23.55 59.66 23.87C59.51 24.19 59.35 24.54 59.18 24.92C59.01 25.29 58.835 25.675 58.655 26.075C58.485 26.475 58.315 26.865 58.145 27.245C57.985 27.615 57.835 27.965 57.695 28.295C57.555 28.615 57.435 28.89 57.335 29.12H55.925C55.825 28.89 55.705 28.61 55.565 28.28C55.425 27.95 55.27 27.6 55.1 27.23C54.94 26.85 54.77 26.46 54.59 26.06C54.42 25.66 54.25 25.275 54.08 24.905C53.91 24.535 53.75 24.19 53.6 23.87C53.45 23.54 53.32 23.265 53.21 23.045C53.1 24.245 53.015 25.485 52.955 26.765C52.905 28.045 52.86 29.29 52.82 30.5H50.96C51 29.64 51.045 28.75 51.095 27.83C51.155 26.91 51.215 26 51.275 25.1C51.345 24.19 51.42 23.31 51.5 22.46C51.58 21.61 51.665 20.825 51.755 20.105H53.51ZM63.9768 26.615C63.9768 25.925 64.0768 25.32 64.2768 24.8C64.4868 24.28 64.7618 23.85 65.1018 23.51C65.4418 23.16 65.8318 22.9 66.2718 22.73C66.7118 22.55 67.1618 22.46 67.6218 22.46C68.7018 22.46 69.5418 22.795 70.1418 23.465C70.7518 24.135 71.0568 25.135 71.0568 26.465C71.0568 26.565 71.0518 26.68 71.0418 26.81C71.0418 26.93 71.0368 27.04 71.0268 27.14H65.8518C65.9018 27.77 66.1218 28.26 66.5118 28.61C66.9118 28.95 67.4868 29.12 68.2368 29.12C68.6768 29.12 69.0768 29.08 69.4368 29C69.8068 28.92 70.0968 28.835 70.3068 28.745L70.5468 30.23C70.4468 30.28 70.3068 30.335 70.1268 30.395C69.9568 30.445 69.7568 30.49 69.5268 30.53C69.3068 30.58 69.0668 30.62 68.8068 30.65C68.5468 30.68 68.2818 30.695 68.0118 30.695C67.3218 30.695 66.7218 30.595 66.2118 30.395C65.7018 30.185 65.2818 29.9 64.9518 29.54C64.6218 29.17 64.3768 28.74 64.2168 28.25C64.0568 27.75 63.9768 27.205 63.9768 26.615ZM69.2418 25.805C69.2418 25.555 69.2068 25.32 69.1368 25.1C69.0668 24.87 68.9618 24.675 68.8218 24.515C68.6918 24.345 68.5268 24.215 68.3268 24.125C68.1368 24.025 67.9068 23.975 67.6368 23.975C67.3568 23.975 67.1118 24.03 66.9018 24.14C66.6918 24.24 66.5118 24.375 66.3618 24.545C66.2218 24.715 66.1118 24.91 66.0318 25.13C65.9518 25.35 65.8968 25.575 65.8668 25.805H69.2418ZM72.9812 22.91C73.3312 22.81 73.7862 22.715 74.3462 22.625C74.9062 22.535 75.5262 22.49 76.2062 22.49C76.8462 22.49 77.3812 22.58 77.8112 22.76C78.2412 22.93 78.5812 23.175 78.8312 23.495C79.0912 23.805 79.2712 24.185 79.3712 24.635C79.4812 25.075 79.5362 25.56 79.5362 26.09V30.5H77.7212V26.375C77.7212 25.955 77.6912 25.6 77.6312 25.31C77.5812 25.01 77.4912 24.77 77.3612 24.59C77.2412 24.4 77.0712 24.265 76.8512 24.185C76.6412 24.095 76.3812 24.05 76.0712 24.05C75.8412 24.05 75.6012 24.065 75.3512 24.095C75.1012 24.125 74.9162 24.15 74.7962 24.17V30.5H72.9812V22.91ZM88.1906 30.26C87.8406 30.35 87.3856 30.44 86.8256 30.53C86.2656 30.63 85.6506 30.68 84.9806 30.68C84.3506 30.68 83.8206 30.59 83.3906 30.41C82.9706 30.23 82.6306 29.98 82.3706 29.66C82.1206 29.34 81.9406 28.96 81.8306 28.52C81.7206 28.07 81.6656 27.58 81.6656 27.05V22.655H83.4806V26.765C83.4806 27.605 83.6006 28.205 83.8406 28.565C84.0906 28.925 84.5206 29.105 85.1306 29.105C85.3506 29.105 85.5806 29.095 85.8206 29.075C86.0706 29.055 86.2556 29.03 86.3756 29V22.655H88.1906V30.26Z" fill="white"/>
</svg>
