<svg width="30" height="30" viewBox="0 0 30 30" fill="none" xmlns="http://www.w3.org/2000/svg">
<g clip-path="url(#clip0_892_1113)">
<path d="M22.2328 10.8022C24.4216 12.1827 27.1031 12.995 29.9991 12.995V8.07809C29.451 8.07828 28.9044 8.0278 28.3681 7.92747V11.7978C25.4723 11.7978 22.7912 10.9856 20.6019 9.6052V19.6393C20.6019 24.6589 15.9899 28.7277 10.3011 28.7277C8.17849 28.7277 6.20552 28.1615 4.56665 27.1905C6.4372 28.878 9.04579 29.9248 11.9316 29.9248C17.6209 29.9248 22.233 25.856 22.233 20.8362V10.8022H22.2328ZM24.2449 5.84164C23.1262 4.7634 22.3917 3.36995 22.2328 1.8294V1.19702H20.6872C21.0763 3.15499 22.4034 4.82775 24.2449 5.84164ZM8.16477 23.3387C7.53974 22.6158 7.2019 21.7312 7.20349 20.8218C7.20349 18.5261 9.31298 16.6646 11.9156 16.6646C12.4005 16.6644 12.8826 16.7301 13.3449 16.8594V11.8325C12.8047 11.7673 12.2595 11.7394 11.7146 11.7497V15.6623C11.2521 15.5329 10.7698 15.4673 10.2846 15.4676C7.68208 15.4676 5.5727 17.3289 5.5727 19.6249C5.5727 21.2484 6.62704 22.654 8.16477 23.3387Z" fill="#FF004F"/>
<path d="M20.6019 9.60509C22.7913 10.9855 25.4722 11.7977 28.3681 11.7977V7.92737C26.7516 7.62354 25.3207 6.8783 24.2448 5.84164C22.4032 4.82764 21.0763 3.15488 20.6872 1.19702H16.6275V20.836C16.6182 23.1255 14.5123 24.9793 11.9154 24.9793C10.3851 24.9793 9.02551 24.3357 8.16453 23.3386C6.62703 22.654 5.57258 21.2483 5.57258 19.625C5.57258 17.3292 7.68195 15.4677 10.2845 15.4677C10.7831 15.4677 11.2637 15.5362 11.7145 15.6624V11.7498C6.12559 11.8517 1.63086 15.8808 1.63086 20.8361C1.63086 23.3097 2.75012 25.5522 4.56676 27.1907C6.20563 28.1615 8.17848 28.7279 10.3012 28.7279C15.9901 28.7279 20.602 24.6588 20.602 19.6393L20.6019 9.60509Z" fill="black"/>
<path d="M28.3682 7.92724V6.88097C26.9105 6.88283 25.4816 6.52266 24.2448 5.84162C25.3396 6.89908 26.7811 7.62831 28.3682 7.92745M20.6871 1.1969C20.6501 1.00982 20.6216 0.821491 20.6018 0.632379V0H14.9963V19.6391C14.9873 21.9284 12.8815 23.7822 10.2844 23.7822C9.54812 23.7832 8.82192 23.6313 8.16445 23.3388C9.02543 24.3357 10.385 24.9791 11.9153 24.9791C14.5121 24.9791 16.6182 23.1256 16.6274 20.836V1.197L20.6871 1.1969ZM11.7148 11.7497V10.6356C11.2464 10.5792 10.7741 10.5509 10.3014 10.551C4.61191 10.551 0 14.62 0 19.6391C0 22.7859 1.81254 25.5592 4.56691 27.1904C2.75027 25.552 1.63102 23.3095 1.63102 20.8359C1.63102 15.8808 6.12563 11.8516 11.7148 11.7497Z" fill="#00F2EA"/>
</g>
<defs>
<clipPath id="clip0_892_1113">
<rect width="30" height="30" fill="white"/>
</clipPath>
</defs>
</svg>
